<?xml version="1.0" encoding="UTF-8"?>
<svg id="Layer_1" xmlns="http://www.w3.org/2000/svg" version="1.1" viewBox="0 0 400 400">
  <!-- Generator: Adobe Illustrator 29.7.1, SVG Export Plug-In . SVG Version: 2.1.1 Build 8)  -->
  <defs>
    <style>
      .st0 {
        fill: #e0af92;
      }

      .st1 {
        fill: #fff;
        opacity: .3;
      }
    </style>
  </defs>
  <g>
    <path class="st0" d="M379.11,132.32c-2.23-57.33-38.07-96.53-95.72-96.53-39.84,0-63.04,22.67-83.39,46.54-20.35-23.88-43.55-46.54-83.39-46.54-57.65,0-93.48,39.2-95.72,96.53-3.68,94.6,169.35,236.27,179.08,244.16v.05s.02-.02.03-.02c0,0,.02.01.03.02v-.05c9.73-7.89,182.76-149.56,179.08-244.16Z"/>
    <path d="M199.97,381.9c-.7,0-1.4-.13-2.06-.41-.69-.29-1.3-.71-1.8-1.23-6.99-5.69-51.58-42.5-94.67-89.72C42.83,226.33,13.93,173.02,15.52,132.11c2.41-61.78,42.08-101.7,101.09-101.7,39.77,0,64.09,21.76,83.39,43.7,19.3-21.94,43.62-43.7,83.39-43.7,59.01,0,98.68,39.92,101.09,101.7,1.59,40.91-27.31,94.22-85.91,158.43-43.47,47.62-88.46,84.67-94.85,89.86-.47.44-1.02.8-1.63,1.06-.01,0-.02.01-.04.02-.66.28-1.37.42-2.09.42ZM116.61,41.16c-26.44,0-48.84,8.69-64.78,25.13-15.67,16.17-24.51,39.07-25.57,66.23-1.46,37.46,27.28,89.59,83.11,150.76,38.59,42.29,78.38,76.11,90.63,86.25,25.43-21.1,177.1-150.69,173.74-237.02-1.06-27.16-9.9-50.07-25.56-66.23-15.94-16.44-38.33-25.13-64.78-25.13-38.06,0-60.04,22.06-79.3,44.66-1.02,1.2-2.52,1.89-4.09,1.89s-3.07-.69-4.09-1.89c-19.26-22.6-41.24-44.66-79.3-44.66Z"/>
  </g>
  <path d="M193.32,78.55s-9.73,133.12-143.87,133.12l8.19,13.31h284.15l8.71-13.31s-129.54,6.66-142.85-135.67l-14.34,2.56Z"/>
  <path class="st1" d="M290.47,52.7s48,3.07,62.97,40.7c14.97,37.63.38,76.03.38,76.03,0,0-.38-45.7-18.05-72.19-17.66-26.5-45.31-44.54-45.31-44.54Z"/>
</svg>