<?xml version="1.0" encoding="UTF-8"?>
<svg id="Layer_1" xmlns="http://www.w3.org/2000/svg" version="1.1" viewBox="0 0 267 253">
  <!-- Generator: Adobe Illustrator 29.7.1, SVG Export Plug-In . SVG Version: 2.1.1 Build 8)  -->
  <defs>
    <style>
      .st0 {
        fill: #e0af92;
      }

      .st1 {
        fill: #fff;
        isolation: isolate;
        opacity: .3;
      }
    </style>
  </defs>
  <g id="Layer_11" data-name="Layer_1">
    <g>
      <g>
        <path class="st0" d="M255.06,75.57c-1.54-39.53-26.25-66.57-66.01-66.57-27.48,0-43.48,15.63-57.51,32.09-14.03-16.47-30.02-32.09-57.51-32.09C34.28,9,9.57,36.02,8.03,75.57c-2.54,65.24,116.78,162.94,123.5,168.38v.04h.04v-.04c6.72-5.44,126.04-103.14,123.5-168.38Z"/>
        <path d="M131.51,247.68c-.47,0-.96-.09-1.42-.28-.47-.19-.89-.49-1.25-.84-4.82-3.93-35.57-29.31-65.29-61.87C23.15,140.41,3.22,103.65,4.33,75.43,5.98,32.83,33.34,5.3,74.02,5.3c27.43,0,44.19,15.01,57.51,30.13,13.31-15.13,30.08-30.13,57.51-30.13,40.69,0,68.05,27.53,69.71,70.13,1.1,28.22-18.84,64.98-59.24,109.26-29.97,32.85-61,58.38-65.41,61.98-.32.3-.7.56-1.12.74h-.02c-.46.19-.95.3-1.44.3v-.02ZM74.02,12.72c-18.24,0-33.69,6-44.67,17.33-10.8,11.15-16.91,26.94-17.63,45.67-1,25.83,18.82,61.78,57.31,103.96,26.62,29.16,54.05,52.49,62.5,59.49,17.54-14.56,122.13-103.91,119.82-163.45-.74-18.73-6.82-34.53-17.63-45.67-11-11.33-26.43-17.33-44.67-17.33-26.24,0-41.41,15.2-54.68,30.8-.7.82-1.74,1.3-2.82,1.3s-2.12-.47-2.82-1.3c-13.28-15.59-28.45-30.8-54.68-30.8h-.04Z"/>
      </g>
      <path d="M126.93,38.5s-6.72,91.79-99.21,91.79l5.65,9.17h195.95l6-9.17s-89.34,4.59-98.51-93.56l-9.89,1.77h.02Z"/>
      <path class="st1" d="M193.93,20.66s33.09,2.12,43.42,28.06c10.33,25.96.26,52.44.26,52.44,0,0-.26-31.51-12.45-49.79-12.19-18.27-31.25-30.73-31.25-30.73l.02.02Z"/>
    </g>
  </g>
</svg>