<?xml version="1.0" encoding="UTF-8"?>
<svg xmlns="http://www.w3.org/2000/svg" version="1.1" viewBox="0 0 157.56 148.62">
  <!-- Generator: Adobe Illustrator 29.7.1, SVG Export Plug-In . SVG Version: 2.1.1 Build 8)  -->
  <defs>
    <style>
      .st0 {
        fill: #e0af92;
      }

      .st1 {
        fill: #fff;
        opacity: .3;
      }

      .st2 {
        display: none;
      }
    </style>
  </defs>
  <g id="Layer_2" class="st2">
    <rect x="0" y="0" width="400" height="400"/>
  </g>
  <g id="Layer_1">
    <g>
      <g>
        <path class="st0" d="M150.05,46.6c-.88-22.54-14.97-37.96-37.64-37.96-15.67,0-24.79,8.91-32.79,18.3-8-9.39-17.12-18.3-32.79-18.3-22.67,0-36.76,15.41-37.64,37.96-1.45,37.2,66.59,92.91,70.42,96.01v.02s0,0,.01,0c0,0,0,0,.01,0v-.02c3.83-3.1,71.87-58.81,70.42-96.01Z"/>
        <path d="M79.6,144.74c-.27,0-.55-.05-.81-.16-.27-.11-.51-.28-.71-.48-2.75-2.24-20.28-16.71-37.23-35.28C17.81,83.57,6.45,62.61,7.08,46.52,8.02,22.23,23.62,6.53,46.82,6.53c15.64,0,25.2,8.56,32.79,17.18,7.59-8.63,17.15-17.18,32.79-17.18,23.2,0,38.8,15.7,39.75,39.99.63,16.09-10.74,37.05-33.78,62.3-17.09,18.73-34.78,33.29-37.3,35.34-.18.17-.4.32-.64.42,0,0,0,0-.01,0-.26.11-.54.17-.82.17ZM46.82,10.76c-10.4,0-19.21,3.42-25.47,9.88-6.16,6.36-9.64,15.36-10.05,26.04-.57,14.73,10.73,35.23,32.68,59.28,15.18,16.63,30.82,29.93,35.64,33.92,10-8.3,69.64-59.25,68.32-93.2-.42-10.68-3.89-19.69-10.05-26.04-6.27-6.46-15.07-9.88-25.47-9.88-14.96,0-23.61,8.67-31.18,17.56-.4.47-.99.74-1.61.74s-1.21-.27-1.61-.74c-7.57-8.89-16.22-17.56-31.18-17.56Z"/>
      </g>
      <path d="M76.99,25.46s-3.83,52.34-56.57,52.34l3.22,5.23h111.73l3.42-5.23s-50.94,2.62-56.17-53.35l-5.64,1.01Z"/>
      <path class="st1" d="M115.19,15.29s18.87,1.21,24.76,16c5.89,14.8.15,29.9.15,29.9,0,0-.15-17.97-7.1-28.39-6.95-10.42-17.82-17.52-17.82-17.52Z"/>
    </g>
  </g>
</svg>
